# xmcd
#
# Track frame offsets: 
#        150
#        19847
#        53510
#        73867
#
# Disc length: 1259 seconds
#
# Revision: 0
# Processed by: cddbd v1.5.1PL2 Copyright (c) Steve Scherf et al.
# Submitted via: ExactAudioCopy v0.95b3
#
DISCID=2e04e904
DTITLE=Pierre Henry and Michel Colombier - Psyché Rock
DYEAR=1997
DGENRE=Dance
TTITLE0=Psyché Rock (Malpaso Radio Edit)
TTITLE1=Psyché Rock (Malpaso Mix)
TTITLE2=Psyché Rock (Metal time Machine Edit)
TTITLE3=Psyché Rock (Psyché Dub)
EXTD=
EXTT0=
EXTT1=
EXTT2=
EXTT3=
PLAYORDER=
